<svg xmlns="http://www.w3.org/2000/svg" fill="%23353534" viewBox="4.87 15.62 161.52 71.13"><path d="M165.75,22.125c-1.231-2.601-6.875-9.875-24-4.375c-13.29,4.269-19.125,14.25-21.25,19c-2.896-1.572-5.464-4.629-6.75-6.5   c-1.375-2-4.5-2.75-6.25-2.625s-6.125,1.625-3.75,2.375s5,1.125,6.25,2.75s2.5,6.625,2.25,9.375s-1.125,4.25-2,5.25   s-4,7.125-8.75,7.125s-7-4-6.875-6c0.072-1.151,1.015-2.467,1.944-3.377c3.417-0.217,2.786,1.768,0.056,4.002   c-1.678,1.372,4.104,2.16,7-0.375c1.852-1.621,1.614-5.795-1.25-9.375c-1.5-1.875-4.219-2.138-6.5-1.125   c-1.983,0.881-2.646,2.441-3.75,2.5c-1.185,0.063-2-1.75-1.375-3s6.668-4.75,7.375-5.875c2.75-4.375-4.875-2.5-5.375-3.375   s2.463-3.884,3.5-4.625c0.875-0.625-1.75-3.125-4.625-0.5c-0.703,0.642-3.25,5-4.125,5.25s-0.871-4.37,0.25-9.75   c0.625-3-1.375-3.25-2.125-3.25s-2.75,0.25-2.125,3.25c1.121,5.38,1.125,10,0.25,9.75s-3.422-4.608-4.125-5.25   c-2.875-2.625-5.5-0.125-4.625,0.5c1.037,0.741,4,3.75,3.5,4.625s-8.125-1-5.375,3.375C73.832,33,79.875,36.5,80.5,37.75   s-0.19,3.063-1.375,3c-1.104-0.059-1.767-1.619-3.75-2.5c-2.281-1.013-5-0.75-6.5,1.125c-2.864,3.58-3.102,7.754-1.25,9.375   c2.896,2.535,8.678,1.747,7,0.375c-2.73-2.234-3.361-4.219,0.056-4.002c0.93,0.91,1.872,2.226,1.944,3.377c0.125,2-2.125,6-6.875,6   s-7.875-6.125-8.75-7.125s-1.75-2.5-2-5.25s1-7.75,2.25-9.375s3.875-2,6.25-2.75s-2-2.25-3.75-2.375s-4.875,0.625-6.25,2.625   c-1.286,1.871-3.854,4.928-6.75,6.5c-2.125-4.75-7.96-14.731-21.25-19c-17.125-5.5-22.769,1.774-24,4.375   C4.375,24.5,4.5,32.625,8.125,34s10.625,0.875,12.25-0.25s8.125-1,9.625,0c0.75,0.5,1,4.75,2.875,4.875s3.875-2.125,3.625-3.5   S33.375,30.25,31,29.5c-0.961-0.304-7.25-0.5-7.75-1.75s-2.503-10.264-8.375-5.125c-4,3.5-1.625,6,2.625,5.875   c1-0.029,2,1.75,1.25,2.25s-7.25,1.125-8.25,0.125S9.136,26.491,10,23.25C10.5,21.375,28.187,10.279,46,37   c0.408,0.613,0.625,1,0.625,1.625c-3.037,0.343-6.673,0.216-8.5,2.5c-5.637,7.046-2.375,6.625-1.25,5.5s6-2,7.25-2.125   s4.75,0.5,6,2.75C54.035,54.288,65.5,58.125,70,58.125s7.875-4.25,9-5.625c0.798-0.976,1.845-4.396,2.388-6.307   c0.3,0.035,0.556,0.057,0.737,0.057c2,0,1.188,2.033,1.375,3.25c0.111,0.726-1.625,1.125-1.875,1.75   c-0.936,2.339-0.321,6.641-0.875,7.125c-0.679,0.594-6.625-1.5-6.625,5.5S80.875,68.75,81.75,70s0.375,16.75,3.875,16.75   s3-15.5,3.875-16.75s7.625,0.875,7.625-6.125s-5.946-4.906-6.625-5.5c-0.554-0.484,0.061-4.786-0.875-7.125   c-0.25-0.625-1.986-1.024-1.875-1.75c0.188-1.217-0.625-3.25,1.375-3.25c0.182,0,0.438-0.021,0.737-0.057   c0.543,1.91,1.59,5.331,2.388,6.307c1.125,1.375,4.5,5.625,9,5.625s15.965-3.837,19.875-10.875c1.25-2.25,4.75-2.875,6-2.75   s6.125,1,7.25,2.125s4.387,1.546-1.25-5.5c-1.827-2.284-5.463-2.157-8.5-2.5c0-0.625,0.217-1.012,0.625-1.625   c17.813-26.721,35.5-15.625,36-13.75c0.864,3.241,0.5,6.625-0.5,7.625s-7.5,0.375-8.25-0.125s0.25-2.279,1.25-2.25   c4.25,0.125,6.625-2.375,2.625-5.875C150.503,17.486,148.5,26.5,148,27.75s-6.789,1.446-7.75,1.75c-2.375,0.75-5.25,4.25-5.5,5.625   s1.75,3.625,3.625,3.5s2.125-4.375,2.875-4.875c1.5-1,8-1.125,9.625,0s8.625,1.625,12.25,0.25S166.875,24.5,165.75,22.125z"></path></svg>