<svg xmlns="http://www.w3.org/2000/svg" fill="%23353534" viewBox="-0.02 -0.02 140.98 8.83"><g transform="translate(-33.299691,-180.00374)"><path id="path863" d="m 87.128555,188.51935 c -0.103279,-0.1671 0.958914,-0.90645 2.360429,-1.64299 2.263818,-1.1897 2.843495,-1.34241 5.194043,-1.36836 3.327333,-0.0367 4.586111,0.28837 4.586111,1.18442 0,1.03486 -0.451474,1.12121 -2.897,0.55405 -2.448024,-0.56773 -3.711978,-0.39482 -6.53596,0.89414 -1.624927,0.74167 -2.415018,0.85219 -2.707623,0.37874 z m 14.517615,-1.8449 c -1.11334,-1.18181 -2.024254,-2.23758 -2.024254,-2.34616 0,-0.24152 4.331824,-4.32455 4.588054,-4.32455 0.10067,0 1.25916,1.01944 2.57443,2.26542 l 2.39139,2.26542 -1.83152,1.70333 c -1.00732,0.93683 -2.03436,1.90177 -2.28229,2.1443 -0.78758,0.77045 -1.34258,0.49297 -3.41581,-1.70776 z m 15.43825,1.06302 c -2.56244,-0.80939 -4.3649,-0.85377 -6.05164,-0.14901 -1.73875,0.7265 -1.94956,0.67546 -1.8211,-0.44097 0.0983,-0.85392 0.31584,-1.00956 1.81645,-1.29929 1.17625,-0.2271 2.35385,-0.19509 3.79818,0.10323 2.50273,0.51693 5.25672,1.64523 5.25672,2.15366 0,0.48584 -0.48479,0.42641 -2.99861,-0.36762 z m -32.790879,-0.29715 c -0.110314,-0.17849 0.197817,-0.6379 0.684735,-1.02091 0.486918,-0.38301 0.885306,-0.77648 0.885306,-0.87439 0,-0.0979 -1.11125,-0.2896 -2.469444,-0.426 -1.358195,-0.1364 -2.469445,-0.36986 -2.469445,-0.51881 0,-0.29468 2.075896,-0.70582 3.595152,-0.71203 1.247182,-0.005 1.563927,-0.58696 0.786909,-1.44556 -0.430512,-0.47571 -0.512198,-0.80541 -0.26163,-1.05597 0.250567,-0.25057 0.712286,-0.0715 1.478819,0.57348 1.412198,1.18828 4.252426,2.27695 5.940369,2.27695 1.81488,0 1.074392,0.56745 -1.309063,1.00316 -1.993738,0.36446 -2.800435,0.66195 -4.938889,1.82132 -1.431791,0.77625 -1.650531,0.81934 -1.922819,0.37876 z m 36.409489,-1.14342 c -0.72615,-0.39333 -1.99615,-0.80113 -2.82222,-0.90622 -2.91568,-0.37093 -3.62659,-1.50638 -0.94315,-1.50638 0.76951,0 2.29489,-0.31484 3.38973,-0.69965 1.47133,-0.51713 2.11223,-0.59873 2.45675,-0.31281 0.25637,0.21277 0.37913,0.52761 0.27279,0.69965 -0.10632,0.17205 0.0646,0.31281 0.37986,0.31281 0.31525,0 0.90169,0.17581 1.3032,0.3907 0.58553,0.31336 0.63332,0.45194 0.24139,0.70015 -0.26875,0.1702 -0.91582,0.31189 -1.43795,0.31486 -1.01746,0.006 -1.58911,0.51767 -0.99096,0.88734 0.37402,0.23116 0.15141,0.90066 -0.2854,0.85832 -0.13407,-0.013 -0.83789,-0.34543 -1.56404,-0.73877 z m 9.63841,-0.14756 c -0.0153,-0.20943 -0.36425,-0.36818 -0.77539,-0.35277 -1.14198,0.0428 -1.68523,-1.04181 -0.91008,-1.81696 0.59226,-0.59226 0.67668,-0.59295 1.6859,-0.0137 0.86288,0.49523 1.19082,0.52956 1.74608,0.18279 0.55476,-0.34645 0.78787,-0.32276 1.23625,0.12562 0.50158,0.50158 0.49946,0.59665 -0.0229,1.03021 -0.4321,0.3586 -0.73011,0.3811 -1.1958,0.0903 -0.68071,-0.42511 -1.22381,-0.21059 -1.53474,0.60621 -0.11079,0.29104 -0.21397,0.35781 -0.22928,0.14837 z m -57.442442,-0.40153 c -0.471699,-0.16946 -0.576612,-1.09956 -0.226839,-2.01105 0.283192,-0.73798 1.196978,-0.71827 1.196978,0.0258 0,0.51951 0.08002,0.51142 0.726207,-0.0734 0.855547,-0.77426 1.850842,-0.36981 2.029228,0.8246 0.143887,0.9634 -1.157101,1.72892 -1.89604,1.11565 -0.339968,-0.28215 -0.651672,-0.30578 -0.947589,-0.0719 -0.242535,0.19174 -0.63941,0.27732 -0.881945,0.19019 z m 5.045485,-0.30801 c -0.821394,-0.82139 -0.567898,-2.05681 0.451665,-2.20121 0.734987,-0.1041 2.184312,0.77586 2.170366,1.31775 -0.02769,1.07535 -1.824665,1.68083 -2.622031,0.88346 z m -44.644792,-0.84995 c 0,-0.23074 6.467593,-0.35277 18.697223,-0.35277 12.229631,0 18.697223,0.12203 18.697223,0.35277 0,0.23075 -6.467592,0.35278 -18.697223,0.35278 -12.22963,0 -18.697223,-0.12203 -18.697223,-0.35278 z m 103.893059,0 c 0.14087,-0.22793 6.77218,-0.35277 18.73886,-0.35277 12.25739,0 18.4471,0.1193 18.30281,0.35277 -0.14087,0.22794 -6.77218,0.35278 -18.73886,0.35278 -12.25739,0 -18.4471,-0.1193 -18.30281,-0.35278 z m -25.84097,-1.16107 c -1.99185,-0.28153 -2.20486,-0.39186 -2.20486,-1.14196 0,-1.16721 0.42835,-1.30573 1.99099,-0.64383 1.67849,0.71097 5.14651,0.73382 6.21669,0.041 0.43348,-0.28064 1.22471,-0.61777 1.75829,-0.74918 1.64534,-0.40519 1.16611,0.72278 -0.70556,1.66066 -2.01013,1.00727 -4.08836,1.25274 -7.05555,0.83335 z m -19.477644,-0.63492 c -2.200797,-0.77163 -3.893887,-1.68195 -3.893887,-2.09362 0,-0.5422 0.959968,-0.40565 2.842944,0.40439 1.754735,0.75486 3.096783,0.77395 7.123029,0.10128 1.232429,-0.20591 1.322916,-0.1612 1.322916,0.65367 0,1.62744 -3.982833,2.13063 -7.395002,0.93428 z"/></g></svg>